<?xml version="1.0" encoding="UTF-8" standalone="no"?>
<svg width="1336px" height="1038px" viewBox="0 0 1336 1038" version="1.1" xmlns="http://www.w3.org/2000/svg" xmlns:xlink="http://www.w3.org/1999/xlink" xmlns:sketch="http://www.bohemiancoding.com/sketch/ns">
    <!-- Generator: Sketch 3.3.3 (12072) - http://www.bohemiancoding.com/sketch -->
    <title>git-comment</title>
    <desc>Created with Sketch.</desc>
    <defs></defs>
    <g id="Page-1" stroke="none" stroke-width="1" fill="none" fill-rule="evenodd" sketch:type="MSPage">
        <g id="git-commit" sketch:type="MSLayerGroup" fill="#38536E">
            <path d="M0.5,172.399503 L0.5,110.5 C0.5,49.9 49.6,0.8 110.2,0.8 L1225.8,0.8 C1286.4,0.8 1335.6,49.9 1335.5,110.5 L1335.5,732.2 C1335.5,792.8 1286.4,841.9 1225.8,841.9 L555.1,841.9 L392,1005 C335.1,1061.9 288.5,1042.7 288.5,962.2 L288.5,842 L110.2,842 C49.6,842 0.5,792.9 0.5,732.3 L0.5,221.4 L96.5,221.4 L253.648421,383.79208 C245.223096,398.361936 240.4,415.271532 240.4,433.3 C240.4,488 284.8,532.4 339.5,532.4 C394.2,532.4 438.6,488 438.6,433.3 C438.6,378.6 394.2,334.2 339.5,334.2 C320.714219,334.2 303.143284,339.43681 288.168469,348.529155 L165.3,222.7 L438.6,222.7 L597.950747,382.933389 C589.215077,397.695863 584.2,414.916228 584.2,433.3 C584.2,488 628.6,532.4 683.3,532.4 C729.304987,532.4 767.909867,501.108118 779.116493,458.7 L928.689995,458.7 C939.91708,501.108118 978.578963,532.4 1024.5,532.4 C1079.3,532.4 1123.6,488 1123.6,433.3 C1123.6,378.6 1079.2,334.2 1024.5,334.2 C979.01318,334.2 940.648881,364.902905 929.015817,406.7 L778.784183,406.7 C767.151119,364.902905 728.78682,334.2 683.3,334.2 C666.827804,334.2 651.289647,338.226348 637.61674,345.347836 L513,221.4 C513,221.4 482,186.8 462.8,178.6 C444.6,170.8 401.8,172.2 401.8,172.2 L0.5,172.399503 Z" id="Shape" sketch:type="MSShapeGroup"></path>
        </g>
    </g>
</svg>